HIERARCHY
ROOT hip
{
	OFFSET 0.000000 0.000000 0.000000 
	CHANNELS 6 Xposition Yposition Zposition Xrotation Zrotation Yrotation
	JOINT abdomen
	{
		OFFSET 0.000000 3.402643 0.000000 
		CHANNELS 3 Xrotation Zrotation Yrotation
		JOINT chest
		{
			OFFSET 0.000000 8.438565 -0.680529 
			CHANNELS 3 Xrotation Zrotation Yrotation
			JOINT neck
			{
				OFFSET 0.000000 10.207942 -0.272212 
				CHANNELS 3 Xrotation Zrotation Yrotation
				JOINT head
				{
					OFFSET 0.000000 3.130431 0.000000 
					CHANNELS 3 Xrotation Zrotation Yrotation
					End Site
					{
						OFFSET 0.000000 3.130435 0.000000 
					}
				}
			}
			JOINT lCollar
			{
				OFFSET 3.470700 6.669187 -0.816635 
				CHANNELS 3 Yrotation Zrotation Xrotation
				JOINT lShldr
				{
					OFFSET 3.198488 0.000000 0.000000 
					CHANNELS 3 Zrotation Yrotation Xrotation
					JOINT lForeArm
					{
						OFFSET 10.139888 0.000000 0.000000 
						CHANNELS 3 Yrotation Zrotation Xrotation
						JOINT lHand
						{
							OFFSET 8.370511 0.000000 0.000000 
							CHANNELS 3 Zrotation Yrotation Xrotation
							End Site
							{
								OFFSET 4.083176 0.000000 0.000000 
							}
						}
					}
				}
			}
			JOINT rCollar
			{
				OFFSET -3.470700 6.669187 -0.816635 
				CHANNELS 3 Yrotation Zrotation Xrotation
				JOINT rShldr
				{
					OFFSET -3.198488 0.000000 0.000000 
					CHANNELS 3 Zrotation Yrotation Xrotation
					JOINT rForeArm
					{
						OFFSET -10.139888 0.000000 0.000000 
						CHANNELS 3 Yrotation Zrotation Xrotation
						JOINT rHand
						{
							OFFSET -8.370511 0.000000 0.000000 
							CHANNELS 3 Zrotation Yrotation Xrotation
							End Site
							{
								OFFSET -4.083176 0.000000 0.000000 
							}
						}
					}
				}
			}
		}
	}
	JOINT lThigh
	{
		OFFSET 5.308129 -1.633274 1.361059 
		CHANNELS 3 Xrotation Zrotation Yrotation
		JOINT lShin
		{
			OFFSET -2.041588 -20.007561 0.000000 
			CHANNELS 3 Xrotation Zrotation Yrotation
			JOINT lFoot
			{
				OFFSET 0.000000 -19.190928 -1.224953 
				CHANNELS 3 Xrotation Yrotation Zrotation
				End Site
				{
					OFFSET 0.000000 -2.449906 4.627600 
				}
			}
		}
	}
	JOINT rThigh
	{
		OFFSET -5.308129 -1.633274 1.361059 
		CHANNELS 3 Xrotation Zrotation Yrotation
		JOINT rShin
		{
			OFFSET 2.041588 -20.007561 0.000000 
			CHANNELS 3 Xrotation Zrotation Yrotation
			JOINT rFoot
			{
				OFFSET 0.000000 -19.190928 -1.224953 
				CHANNELS 3 Xrotation Yrotation Zrotation
				End Site
				{
					OFFSET 0.000000 -2.449906 4.627600 
				}
			}
		}
	}
}
MOTION
Frames: 8
Frame Time: 0.016667
0.000000 37.497513 -6.967428 -14.861371 0.321783 -3.134771 42.894859 -0.517561 -0.468819 31.728008 0.371093 -0.078123 26.425821 0.234375 0.009805 -53.632854 -0.273438 0.009766 -0.535973 27.202475 1.467412 -88.892700 -22.341951 -38.379597 -139.144577 -15.886359 42.493134 -65.533142 -12.073244 -31.409796 -1.338763 -24.470961 1.437313 72.802452 35.353546 -34.823830 137.381760 42.421898 -8.374672 70.945465 -68.102692 -44.887653 -37.362640 0.419634 1.498585 68.884666 -8.209488 -8.131236 5.179990 11.097144 6.256826 -61.414307 -9.442968 -10.983782 131.412796 -1.025180 9.903979 24.255625 -12.109518 -7.636222 
0.000000 37.357342 -7.331864 -16.014088 0.379846 -4.179725 42.801334 -0.732374 -0.654368 31.796368 0.371093 -0.078123 26.386789 0.205078 0.019566 -53.222424 -0.224609 -0.058632 -0.468343 27.565466 1.471858 -89.125099 -21.952610 -38.712048 -139.367218 -15.954463 43.477962 -65.343269 -12.029049 -31.248823 -1.172496 -23.880152 1.398695 72.688370 35.292057 -34.673985 138.035629 44.131474 -8.847729 71.855057 -68.394745 -44.404068 -36.270233 0.136095 1.414971 71.680504 -8.200012 -8.512517 2.104113 12.571080 6.083497 -67.095573 -10.995099 -12.733598 133.475403 -1.213546 9.906529 26.015932 -12.520260 -8.681666 
0.000000 37.158508 -7.848843 -17.634588 0.408490 -5.166092 42.591724 -0.927635 -0.840050 31.933296 0.292969 -0.058593 26.396503 0.107422 0.009784 -52.870842 -0.078125 -0.185560 -0.372680 27.811817 1.467730 -88.913193 -21.714546 -38.849274 -139.424210 -15.960745 43.331081 -65.172539 -11.992243 -31.094570 -0.860071 -23.395243 1.425671 72.592041 35.206554 -34.520657 138.654877 45.343536 -9.347668 72.676239 -68.641953 -43.917202 -34.597740 -0.195473 1.340399 73.475426 -8.229654 -8.815948 -0.024771 13.977360 5.680896 -71.454025 -12.001978 -14.348052 133.452896 -1.138727 9.853045 26.948387 -12.280452 -10.050856 
0.000000 36.959652 -8.365863 -19.252943 0.407794 -6.152465 42.383366 -1.132635 -1.016006 32.070171 0.205078 -0.039062 26.406248 0.009766 0.000000 -52.529720 0.078124 -0.312500 -0.276940 28.058138 1.459092 -88.702263 -21.485582 -38.982006 -139.483124 -15.973172 43.177032 -65.003914 -11.952564 -30.947023 -0.548157 -22.910025 1.452713 72.493637 35.130871 -34.369541 139.288712 46.555031 -9.858725 73.510635 -68.877914 -43.428532 -32.911545 -0.537508 1.267520 75.280762 -8.259453 -9.111293 -2.165903 15.387099 5.361298 -75.806229 -13.103819 -15.871565 133.433548 -1.015370 9.805228 27.895163 -12.080187 -11.406449 
0.000000 36.730804 -8.960866 -21.113600 0.397363 -7.050950 42.183521 -1.269279 -1.142947 32.197220 0.126953 -0.019531 26.464859 -0.087891 -0.009781 -52.463127 0.273429 -0.458979 -0.203676 28.069473 1.445877 -87.857559 -21.722178 -38.634808 -139.193695 -15.880976 41.045029 -64.854538 -11.919947 -30.804159 -0.249561 -22.777042 1.527148 72.410736 35.047527 -34.229061 139.920029 47.091911 -10.413720 74.242149 -69.080070 -42.933056 -30.876915 -0.908748 1.200348 76.271042 -8.425591 -9.415365 -3.500021 16.546280 4.960276 -77.858376 -13.650925 -16.933130 131.708328 -0.605478 9.839962 28.094646 -11.293859 -13.315963 
0.000000 36.501957 -9.555875 -22.969893 0.357856 -7.949368 41.974258 -1.415679 -1.250583 32.333996 0.048828 0.009774 26.533298 -0.185547 -0.029328 -52.387867 0.478489 -0.605448 -0.125853 28.080980 1.445871 -87.011566 -21.955326 -38.291733 -138.896698 -15.806917 38.905453 -64.698738 -11.879258 -30.672016 0.034819 -22.643639 1.588772 72.316162 34.961311 -34.078995 140.552582 47.628590 -10.985715 75.020607 -69.263840 -42.476116 -28.836636 -1.289626 1.112556 77.252792 -8.582020 -9.705869 -4.829124 17.721109 4.546854 -79.906593 -14.225695 -17.966070 129.975235 -0.195040 9.841768 28.293245 -10.526186 -15.273753 
0.000000 36.271790 -10.154308 -24.845209 0.328201 -8.711074 41.858414 -1.454721 -1.270114 32.412121 0.048828 0.009774 26.670111 -0.224609 -0.048866 -52.703690 0.664010 -0.722608 -0.126401 27.758600 1.441344 -85.447945 -22.867172 -37.275349 -138.155701 -15.567979 34.313049 -64.580887 -11.860293 -30.553322 0.161726 -23.022137 1.688757 72.258141 34.890244 -33.961445 141.198303 47.362930 -11.613374 75.676445 -69.384338 -42.027687 -26.555855 -1.630973 0.993645 77.802979 -8.992095 -10.102174 -5.884787 18.497105 4.259598 -79.937103 -14.148232 -18.112734 127.083290 0.478869 9.939867 28.359453 -9.736950 -17.400055 
0.000000 36.041637 -10.752699 -26.724689 0.269709 -9.472734 41.732803 -1.503531 -1.279881 32.480476 0.048828 0.009774 26.816751 -0.253906 -0.078168 -53.020557 0.859281 -0.849660 -0.122590 27.446180 1.450033 -83.878975 -23.797403 -36.284443 -137.398529 -15.389535 29.726509 -64.454353 -11.836843 -30.436659 0.295276 -23.390306 1.779840 72.188438 34.816189 -33.839970 141.834229 47.107155 -12.240742 76.335686 -69.499535 -41.572849 -24.293995 -1.982609 0.874891 78.372589 -9.402504 -10.536524 -6.948830 19.296635 3.966767 -79.948517 -14.071390 -18.242649 124.191338 1.143161 10.016190 28.439800 -8.965954 -19.500290 
